<svg width="599" height="210" viewBox="0 0 599 210" fill="none" xmlns="http://www.w3.org/2000/svg">
<path d="M222.325 101.832C222.325 61.8756 172.578 29.1594 111.16 29.1594C49.7476 29.1594 0 61.8756 0 101.832V106.041C0 148.566 43.4384 182.927 111.16 182.927C179.123 182.927 222.325 148.584 222.325 106.046V101.832ZM218.355 101.832C218.355 139.462 170.488 170.065 111.628 170.065C52.7645 170.065 4.90568 139.462 4.90568 101.832C4.90568 64.2075 52.7776 33.6044 111.624 33.6044C170.475 33.6044 218.355 64.2031 218.355 101.832ZM255.957 104.007H259.223V169.444H246.845V111.969C246.845 110.101 250.81 104.007 255.957 104.007ZM323.683 118.501C317.606 118.501 312.94 121.069 309.674 126.219V104.007H308.271C302.198 104.007 298.932 107.279 297.292 110.088V109.62V147.249C297.292 161.967 305.005 169.448 320.413 169.448C335.825 169.207 343.297 160.803 343.297 144.445C343.297 127.382 336.765 118.965 323.683 118.501ZM319.936 158.699C312.927 158.699 309.421 153.562 309.661 143.741C310.12 134.159 313.391 129.487 320.159 129.487C326.936 129.487 330.202 134.159 330.665 143.741C330.679 153.79 326.949 158.699 319.936 158.699ZM350.533 143.741C350.997 127.846 358.709 118.978 375.28 118.978H379.01V131.832H373.173C366.16 131.832 363.134 136.264 363.134 143.517V169.221H350.529L350.533 143.741ZM398.641 156.594C400.74 158.458 407.276 159.399 407.276 159.399C407.276 159.399 412.182 158.699 414.049 157.299C415.916 155.894 417.092 154.49 417.555 153.086H429.234C427.371 158.922 424.564 162.907 420.599 165.476C416.629 168.044 412.182 169.207 406.59 169.207C402.86 169.207 399.354 168.507 396.315 167.339C393.268 166.176 390.701 164.299 388.602 162.207C386.491 159.886 384.827 157.194 383.692 154.267C382.529 151.222 382.053 147.726 382.053 143.981C382.053 140.472 382.752 136.968 383.915 133.936C385.078 130.891 386.722 128.1 388.825 125.996C390.924 123.651 393.495 122.023 396.538 120.619C399.577 119.219 402.847 118.755 406.577 118.755C410.542 118.755 414.289 119.455 417.315 121.1C420.358 122.741 422.925 124.827 424.792 127.413C426.654 129.994 428.058 133.022 428.998 136.531C429.938 139.799 430.161 143.548 429.938 147.28H395.135C395.611 151.686 396.774 154.731 398.641 156.594ZM413.585 131.351C411.946 129.71 409.62 128.787 406.349 128.787C404.251 128.787 402.384 129.251 400.98 129.951C399.581 130.651 398.414 131.591 397.714 132.519C396.916 133.498 396.285 134.602 395.847 135.787C395.388 136.951 395.388 138.132 395.148 139.055H416.629C416.392 135.564 415.229 132.991 413.585 131.351ZM272.532 104.007H284.91V115.22H272.532V104.007ZM272.532 120.846H284.91V169.221H272.532V120.846ZM582.591 78.0806C581.545 79.2779 580.25 80.2321 578.797 80.8767C577.344 81.5213 575.768 81.8406 574.179 81.8125C570.672 81.8125 567.87 80.4125 565.766 78.0806C563.663 75.7356 562.964 71.7675 562.964 67.0994C562.964 62.1862 563.904 58.6775 565.766 56.35C566.812 55.1519 568.107 54.1968 569.56 53.5515C571.013 52.9061 572.589 52.5861 574.179 52.6137C577.685 52.6137 580.488 54.0181 582.591 56.35C584.694 58.6906 585.398 62.6631 585.398 67.095C585.398 71.5269 584.694 75.2762 582.591 78.0806ZM592.407 49.0962C588.677 44.1831 582.368 41.3787 574.192 41.3787C566.256 41.3787 559.711 43.7194 555.981 49.0962C552.252 54.005 549.908 60.0775 549.908 66.8587C549.908 73.8719 552.011 79.9487 555.981 84.6212C559.711 89.53 566.02 92.0981 574.192 92.0981C582.132 92.0981 588.677 89.7531 592.407 84.6169C596.136 79.7081 598.48 73.6356 598.48 66.8544C598.703 60.3181 596.6 54.2412 592.407 49.0919V49.0962ZM531.68 78.0806C530.041 80.4256 527.251 81.8125 523.745 81.8125C520.238 81.8125 517.435 80.4125 516.032 78.0806C514.392 75.2762 513.693 71.7675 513.693 67.0994C513.693 62.8862 514.392 59.6181 516.032 57.05C517.672 54.2456 520.238 52.8412 523.968 52.8412C526.311 52.8412 528.401 53.5412 530.277 54.9412C533.084 57.2862 534.71 61.9587 534.71 68.0356C534.024 72.2312 533.547 75.7356 531.68 78.0806ZM546.166 27.1381C546.166 27.1381 533.56 25.7381 533.56 35.7787V49.0962C532.157 46.9919 530.517 45.3644 527.951 43.7194C525.848 42.3194 523.045 42.0787 520.238 42.0787C513.929 42.0787 509.036 44.4237 505.053 49.0962C501.324 53.5281 499.444 60.305 499.444 68.7225C499.444 75.7356 501.088 81.8125 505.053 85.785C508.783 90.2169 516.255 92.0981 522.805 92.0981C545.925 92.0981 545.462 72.4675 545.462 72.4675L546.166 27.1381ZM484.049 72.2312C484.049 76.44 482.645 79.2444 480.542 80.8719C478.203 82.2762 475.637 83.2169 473.07 83.2169C471.431 83.2169 470.027 82.9762 468.864 81.8169C467.701 80.6487 467.224 79.4719 467.224 77.3806C467.224 75.0356 468.164 73.1719 470.027 72.0037C470.967 71.3037 473.07 70.6037 475.637 70.3631L478.439 69.6631C479.843 69.4225 480.783 68.9631 481.946 68.9631C482.645 68.7225 483.585 68.2631 484.289 68.0225L484.049 72.2312ZM490.345 44.9006C486.139 42.7962 481.71 41.8556 476.336 41.8556C468.401 41.8556 462.555 43.9556 459.289 48.1687C457.186 50.9731 456.246 54.2456 455.782 58.2137H467.688C467.924 56.5731 468.628 55.1687 469.327 54.005C470.731 52.605 472.834 51.9006 475.637 51.9006C478.439 51.9006 480.066 52.1412 481.71 52.8412C483.109 53.5412 483.813 54.9412 483.813 57.05C483.813 58.6906 482.873 59.8544 481.006 60.5587C479.393 60.9808 477.754 61.2936 476.1 61.495L471.894 61.7356C466.984 62.4356 463.482 63.3762 460.915 64.7806C456.482 67.1212 454.143 71.7937 454.143 77.3937C454.143 81.8256 455.542 85.3343 458.349 87.9156C461.151 90.2606 464.658 91.4244 469.087 91.6475C496.418 92.5881 496.178 77.1531 496.178 74.1256V56.35C496.418 51.2006 494.551 46.9875 490.345 44.9006ZM428.456 52.6006C431.499 52.6006 433.825 53.5412 435.464 55.4094C436.404 56.8094 437.104 58.4544 437.104 60.3181H450.413C449.709 53.5412 447.37 48.6325 443.4 46.3006C439.67 43.4962 434.288 42.5687 427.992 42.5687C420.516 42.5687 414.683 44.6731 410.477 49.35C406.271 54.0181 404.168 60.3312 404.168 68.2719C404.168 75.7531 405.812 81.3619 409.777 85.7981C413.507 90.23 419.593 92.575 427.529 92.575C435.464 92.575 441.537 89.7662 445.743 84.6343C448.083 81.1256 449.473 77.6169 449.95 73.6487H436.627C436.391 75.9894 435.687 78.0806 434.288 79.7212C432.889 81.1256 430.782 82.0662 427.511 82.0662C423.309 82.0662 420.043 79.9619 418.876 75.9894C417.952 73.279 417.48 70.4354 417.477 67.5719C417.477 64.0631 417.713 60.795 418.876 58.9312C420.996 54.705 423.786 52.6006 428.451 52.6006H428.456ZM400.665 42.0919C372.871 42.0919 374.738 66.6356 374.738 66.6356V91.3981H387.343V68.2587C387.343 64.5269 387.584 61.4819 388.742 59.8412C390.386 56.7962 393.652 54.9325 398.785 54.9325H400.184C400.884 54.9325 401.588 54.9325 402.292 55.1687V42.5556H401.352C401.142 42.0919 401.142 42.0919 400.665 42.0919ZM338.085 54.95C339.725 53.3094 342.291 52.1456 345.562 52.1456C348.36 52.1456 350.931 52.8456 353.034 54.4862C355.133 56.1269 356.077 58.695 356.077 61.9675H334.596C335.283 59.1587 336.223 56.8137 338.085 54.95ZM354.897 78.085C354.753 78.4577 354.533 78.7962 354.25 79.0788C353.968 79.3613 353.629 79.5816 353.257 79.7256C351.617 81.13 349.051 81.3662 346.248 81.3662C343.441 81.3662 341.338 81.13 339.471 79.7256C336.433 78.085 334.566 74.3531 334.566 69.9037H369.128C369.128 65.695 369.128 62.4269 368.892 60.5631C368.193 56.8312 367.253 53.5456 365.163 50.7412C363.06 47.6962 360.253 45.1281 357.227 43.7237C354.197 42.3237 350.214 41.6237 346.021 41.6237C339.012 41.6237 333.416 43.7237 329.21 48.3962C325.003 52.8325 322.437 59.1456 322.437 67.3225C322.437 75.9675 324.78 82.5169 329.913 86.2487C334.819 89.985 340.411 92.33 346.725 92.33C354.433 92.33 360.506 89.985 364.476 85.3125C366.815 82.9675 368.206 80.3994 368.682 77.8312L354.897 78.085ZM317.068 91.1619H305.389V62.4269C305.389 59.6225 304.69 53.7862 296.977 53.7862C292.067 53.7862 288.338 57.295 288.338 62.4269V91.175H276.659V62.4312C276.659 59.6225 275.96 53.7862 268.243 53.7862C263.337 53.7862 259.83 57.295 259.83 62.4269V91.175H248.152V62.65C248.152 50.7412 255.865 41.6193 268.007 41.6193C274.08 41.6193 278.985 43.9644 282.492 48.4006C285.998 44.1875 290.904 41.6193 296.977 41.6193C309.578 41.6193 316.827 50.2644 316.827 62.65L317.068 91.1619ZM170.947 109.077C160.436 99.9731 136.148 78.7019 129.375 73.7931C125.646 70.9844 123.066 69.3569 120.74 68.88C119.8 68.6437 118.397 68.18 116.534 68.18C114.894 68.18 113.027 68.4162 111.16 69.1206C106.954 70.5206 102.748 73.7931 98.5552 77.0612L98.3191 77.3019C94.5895 80.3425 90.6064 83.3744 87.5764 84.0787C86.1773 84.315 85.0099 84.5381 83.6108 84.5381C80.3447 84.5381 77.3016 83.5975 76.1342 82.1975C75.8981 81.9569 76.1342 81.4975 76.5977 81.0294L85.9368 70.9844C93.1729 63.7481 99.9456 56.9712 115.83 56.4944H116.53C126.345 56.4944 136.148 60.9262 137.311 61.4031C146.65 65.835 155.989 68.18 165.564 68.18C175.603 68.18 186.538 65.0519 197.281 60.1431C196.118 59.2025 194.714 58.0387 193.551 57.0981C183.976 61.3069 174.445 63.7306 165.569 63.7306C156.693 63.7306 147.817 61.6306 139.178 57.4175C138.714 57.1812 127.972 52.045 116.516 52.045H115.581C102.272 52.2856 94.7994 56.9581 89.8937 61.1669C84.9837 61.1669 80.7776 62.5669 77.048 63.5075C73.7819 64.4481 70.7388 65.1481 67.9318 65.1481H64.4297C61.1636 65.1481 44.8113 61.18 31.97 56.0306C30.5709 56.9712 29.4035 57.8944 28 58.835C41.5452 64.4481 58.1336 68.6569 63.2666 69.1162C64.6658 69.1162 66.3054 69.3569 67.9318 69.3569C71.4384 69.3569 74.7089 68.4162 78.211 67.4931C80.3141 67.0294 82.4172 66.3294 84.5202 65.8525L82.6576 67.7162L73.3316 77.9975C72.632 78.7018 70.9924 80.8062 71.9325 83.1381C72.3916 84.0787 73.3316 85.0018 74.4946 85.9425C76.8381 87.3425 80.8082 88.5106 84.5333 88.5106C85.9368 88.5106 87.3403 88.27 88.5033 88.0469C92.4734 87.1062 96.6795 83.8381 100.886 80.3294C104.388 77.525 109.298 74.0162 113.027 72.8481C114.19 72.6118 115.371 72.3887 116.534 72.3887H117.474C120.036 72.6294 122.38 73.5525 126.809 76.8206C134.521 82.6612 168.848 112.573 169.089 112.809C169.089 112.809 171.187 114.677 171.187 117.946C171.187 119.586 170.024 121.214 168.385 122.377C167.073 123.263 165.533 123.75 163.951 123.782C161.612 123.782 159.985 122.618 159.985 122.618C159.985 122.618 148.067 111.886 143.861 108.154C143.161 107.454 142.461 106.986 141.758 106.986C141.294 106.986 141.058 107.227 140.817 107.45C140.118 108.391 140.817 109.554 141.758 110.259L155.539 124.049C155.539 124.049 157.183 125.689 157.406 127.781C157.406 130.121 156.466 131.989 154.14 133.394C152.721 134.452 151 135.027 149.23 135.034C147.131 135.034 145.728 134.094 145.264 133.871L143.161 132.002C139.654 128.494 135.925 124.766 133.118 122.657C132.418 122.198 131.719 121.494 131.019 121.494C130.779 121.494 130.32 121.494 130.079 121.957C129.839 122.198 129.616 122.898 130.315 124.062C130.556 124.526 131.015 124.762 131.015 124.762L141.058 135.975C141.058 135.975 143.157 138.543 141.294 140.647L140.831 141.111L139.891 142.047C138.251 143.452 135.925 143.692 134.985 143.692H133.586C132.641 143.452 131.942 143.229 131.478 142.752C131.015 142.052 125.869 137.139 121.663 133.63C121.204 133.166 120.5 132.689 119.8 132.689C119.448 132.75 119.122 132.911 118.86 133.153C118.16 134.094 119.323 135.498 119.8 135.962L128.435 145.302C128.435 145.302 128.435 145.543 128.199 146.002C127.959 146.471 126.8 147.411 123.766 147.871H122.603C119.337 147.871 116.07 146.23 114.19 145.302C114.89 143.662 115.353 141.798 115.353 139.93C115.362 138.271 115.041 136.627 114.41 135.093C113.78 133.559 112.852 132.165 111.68 130.992C110.508 129.818 109.115 128.889 107.582 128.258C106.049 127.626 104.406 127.305 102.748 127.312H102.289C102.525 124.044 102.049 117.967 95.7526 115.399C93.89 114.699 92.246 114.236 90.3834 114.236C88.9843 114.236 87.8169 114.476 86.4134 114.936C85.0849 112.395 82.8231 110.469 80.1042 109.563C78.5896 109.106 77.0168 108.87 75.4347 108.863C72.8983 108.814 70.4227 109.642 68.4259 111.208C67.4107 109.958 66.1276 108.952 64.6716 108.264C63.2155 107.576 61.6237 107.225 60.0137 107.236C57.2209 107.241 54.5397 108.333 52.5371 110.281C49.9706 108.176 39.4553 101.636 11.2017 95.0862C9.80261 94.8456 6.77264 93.9225 4.89256 93.2181C4.65646 94.6225 4.4291 96.2631 4.193 97.8906C4.193 97.8906 9.32604 99.0543 10.5022 99.295C39.2323 105.608 48.8076 112.385 50.4341 113.549C49.9768 114.905 49.7406 116.326 49.7345 117.757C49.7305 119.17 50.0054 120.569 50.5436 121.875C51.0818 123.181 51.8725 124.367 52.8704 125.366C53.8683 126.365 55.0536 127.157 56.3583 127.696C57.663 128.235 59.0613 128.51 60.4728 128.507C61.1723 128.507 61.8763 128.507 62.5802 128.266C63.5159 132.702 66.3054 135.984 70.7563 137.611C72.1555 138.075 73.3185 138.311 74.4815 138.311C75.1811 138.311 76.1211 138.311 77.048 138.075C77.7476 140.175 79.6145 142.747 83.8207 144.388C85.2198 145.088 86.6233 145.329 88.0268 145.329C89.1898 145.329 90.3703 145.088 91.2928 144.629C92.2381 146.959 93.8522 148.957 95.9315 150.371C98.0108 151.784 100.462 152.549 102.976 152.569C106.478 152.569 109.748 151.165 112.087 148.597C114.19 149.761 118.397 151.865 122.83 151.865H124.47C128.899 151.401 130.779 149.524 131.706 148.356C131.942 148.12 131.942 147.897 132.165 147.656C133.105 147.897 134.268 148.12 135.671 148.12C138.015 148.12 140.341 147.42 142.684 145.552C145.024 143.911 146.65 141.584 146.65 139.479C147.35 139.716 148.29 139.716 148.994 139.716C151.333 139.716 153.899 139.016 156.225 137.375C160.659 134.566 161.358 130.594 161.358 128.253C162.058 128.489 162.998 128.489 163.702 128.489C166.118 128.478 168.476 127.747 170.475 126.389C173.277 124.521 174.904 121.953 175.144 118.908C175.38 116.808 174.681 114.699 173.741 112.836C181.217 109.563 198.282 103.447 218.381 98.7787C218.381 97.1337 218.137 95.7337 217.677 94.1062C193.63 99.225 175.38 106.969 170.951 109.073L170.947 109.077ZM103.452 148.111C98.7825 148.111 95.0355 144.379 94.8125 139.694C94.8125 139.23 94.8125 138.289 93.8725 138.289C93.4134 138.289 93.1729 138.53 92.7095 138.753C91.7694 139.694 90.3703 140.617 88.5033 140.617C87.5273 140.606 86.5675 140.366 85.7007 139.917C80.7907 137.812 80.5677 134.544 80.7907 133.14C80.7907 132.676 80.7907 132.44 80.5546 132.199L80.3141 131.963H80.078C79.8375 131.963 79.6145 131.963 79.138 132.422C77.7388 133.363 76.331 133.827 74.9318 133.827C74.1329 133.783 73.344 133.626 72.5883 133.363C66.0561 130.795 66.5196 124.722 66.9787 122.841C66.9787 122.377 66.9787 122.141 66.7426 121.901L66.2791 121.441L65.8157 121.901C64.4166 123.069 62.7726 123.769 61.1461 123.769C59.3502 123.765 57.6289 123.05 56.3594 121.778C55.0899 120.507 54.3758 118.785 54.3735 116.987C54.3735 113.26 57.4166 110.215 61.1505 110.215C64.4166 110.215 67.4553 112.783 67.9187 116.051L68.1592 117.919L69.0992 116.274C69.0992 116.038 71.9019 111.842 77.0349 112.066C77.9749 112.066 78.8975 112.306 80.078 112.529C84.0436 113.693 84.7476 117.442 84.7476 118.842C84.7476 119.783 85.4471 119.783 85.4471 119.783C85.6876 119.783 86.1467 119.542 86.1467 119.319C86.8463 118.619 88.4902 117.219 91.0567 117.219C92.2198 117.219 93.3959 117.456 94.7863 118.156C101.095 120.96 98.2928 128.901 98.2928 129.141C97.8294 130.541 97.5933 131.009 98.2928 131.486H98.7519C98.9924 131.486 99.4515 131.486 99.9193 131.246C100.855 131.009 102.018 130.546 103.185 130.546C107.855 130.546 111.821 134.514 111.821 139.186C111.905 140.333 111.751 141.486 111.368 142.57C110.985 143.655 110.381 144.648 109.594 145.487C108.808 146.326 107.856 146.992 106.798 147.444C105.741 147.896 104.602 148.123 103.452 148.111Z" fill="#252E7C"/>
<path d="M224 107.234C224 150.043 180.481 184.614 112.007 184.614C43.7603 184.614 0 150.043 0 107.234C0 106.993 0 103.939 0 103.002C0 62.7779 50.1234 29.8547 112.007 29.8547C173.891 29.8547 224 62.7779 224 103.002C224 105.118 224 105.828 224 107.234Z" fill="#2D3277"/>
<path d="M112.476 171.675C171.865 171.675 220.009 140.929 220.009 103.002C220.009 65.0748 171.865 34.3289 112.476 34.3289C53.0868 34.3289 4.94263 65.0748 4.94263 103.002C4.94263 140.929 53.0868 171.675 112.476 171.675Z" fill="#FFE600"/>
<path d="M85.8872 71.2431C93.4149 63.7154 100.233 56.8978 116.481 56.4291C127.531 56.1876 138.596 61.3718 138.596 61.3718C159.063 71.2431 180.012 67.4792 196.943 60.4344C209.186 70.3057 217.182 82.5347 219.299 95.7012C194.358 101.354 176.007 109.109 172.002 110.998C166.832 106.524 137.175 80.6599 129.889 75.2484C125.884 72.422 123.54 71.0159 121.41 70.3057C119.535 69.837 116.708 69.1268 112.234 70.5471C108.002 71.7118 103.769 75.2484 99.5366 78.5436C95.7727 81.5973 91.5259 84.8925 88.4722 85.5884C83.0608 86.7673 77.8908 85.5884 76.2432 83.4721C75.533 82.5347 76.7119 81.3558 76.7119 81.3558L85.8872 71.2431Z" fill="white"/>
<path d="M173.181 118.995C173.181 121.111 172.002 122.759 170.127 123.938C164.943 127.219 160.952 124.165 160.71 124.165C160.71 124.165 148.95 113.342 144.476 109.578C143.766 109.11 142.828 108.414 142.359 108.882C141.891 109.578 143.297 110.757 143.297 110.757L156.946 124.634C156.946 124.634 158.835 126.523 159.062 128.866C159.304 130.755 158.594 133.099 155.54 135.229C150.597 138.51 146.833 136.167 145.882 135.457C141.649 131.224 137.175 126.523 133.88 123.938C133.184 123.469 132.232 122.759 131.764 123.228C131.295 123.696 132.715 125.102 132.715 125.102L142.828 136.394C142.828 136.394 145.186 139.221 143.07 142.047C142.828 142.516 142.118 142.984 141.649 143.453C139.533 145.101 136.479 145.342 134.832 145.101C132.943 144.632 132.474 143.922 132.474 143.922C132.474 143.922 127.304 138.51 122.83 134.746C122.12 134.278 121.182 133.582 120.714 134.051C120.245 134.519 121.651 135.925 121.651 135.925L130.358 145.569C130.826 146.038 130.358 146.507 130.116 146.975C129.647 147.686 128.469 148.623 125.173 149.106C120.941 149.575 116.481 147.217 114.592 146.28C115.529 144.632 115.998 142.748 115.998 140.627C115.998 133.809 110.587 128.398 103.769 128.398C103.3 128.398 103.059 128.398 102.59 128.398C103.059 124.165 102.122 118.526 96.4686 116.169C94.5938 115.458 92.9462 114.99 91.2986 114.99C89.6511 114.99 88.2449 115.458 87.066 115.941C86.1144 113.825 84.4669 111.467 80.9444 110.288C79.2969 109.82 77.8907 109.578 76.4704 109.578C73.4167 109.578 70.8317 110.757 69.1841 112.177C67.2951 109.578 64.2414 107.945 60.9462 107.945C57.8783 107.945 55.2933 109.11 53.4185 111.226C51.5294 109.82 42.1127 102.761 11.533 95.9431C10.3541 95.7016 7.05896 94.7642 5.16992 94.2955C7.76912 80.4189 16.9444 67.9484 30.3523 57.8357C41.644 63.0199 49.1717 65.3634 57.8783 67.7212C59.2986 68.1899 66.8264 69.3688 68.2325 69.3688C71.5277 69.3688 74.8228 68.4313 78.3594 67.4797C81.1859 66.7838 83.9981 66.0736 87.066 65.6049C85.8872 66.7838 84.9498 67.7212 83.7709 68.9001L74.3541 79.24C74.1269 79.4815 72.2378 81.3563 73.1752 83.7141C73.6439 84.6515 74.3541 85.5889 75.533 86.2991C78.118 88.1881 83.9981 89.5942 88.9409 88.4154C92.7048 87.7052 96.7101 84.4242 101.184 80.8876C105.417 77.5925 110.359 74.3115 113.882 73.3599C115.302 72.8912 117.177 72.6639 118.597 72.8912C121.182 73.3599 123.767 74.3115 128.241 77.5925C136.011 83.4726 170.596 113.584 170.823 113.825C170.823 113.825 173.422 115.941 173.181 118.995Z" fill="white"/>
<path d="M113.655 140.868C113.655 146.038 109.422 150.27 104.238 150.27C99.2951 150.27 95.0625 146.279 94.8211 141.337C94.8211 140.399 94.5938 140.158 93.8837 140.868C92.4775 142.274 90.1198 143.922 86.1145 142.274C80.703 140.158 80.4758 136.394 80.703 134.746C80.703 134.278 80.703 134.05 80.0071 134.519C77.8908 135.925 75.533 136.863 72.7066 135.698C65.6475 133.099 66.3577 126.281 66.5849 124.406C66.5849 124.165 66.5849 124.165 66.5849 124.165C65.1788 125.585 63.5312 126.281 61.4149 126.281C57.1824 126.281 53.8872 122.986 53.8872 118.753C53.8872 114.521 57.1824 111.226 61.4149 111.226C65.4203 111.226 68.474 114.052 68.9427 117.816C70.1216 116.168 74.1269 111.467 80.703 113.583C85.4185 114.989 86.1145 119.222 86.1145 120.642C86.1145 120.87 86.3559 120.87 86.5974 120.642C87.5348 119.463 90.83 116.879 95.9999 119.222C102.832 122.29 100.005 130.755 99.7638 131.224C99.5366 131.693 99.2951 132.63 99.5366 132.63C99.7638 132.63 102.122 131.465 104.238 131.465C109.422 131.465 113.655 135.698 113.655 140.868Z" fill="white"/>
<path fill-rule="evenodd" clip-rule="evenodd" d="M219.072 95.2325C219.54 96.8801 219.768 98.3004 219.768 99.948C199.542 104.649 182.598 110.757 175.07 114.052C176.007 115.941 176.717 118.057 176.476 120.173C176.234 123.227 174.587 125.812 171.775 127.701C169.658 129.107 167.301 129.818 164.943 129.818C164.247 129.818 163.295 129.818 162.599 129.576C162.599 131.934 161.889 135.925 157.415 138.751C155.057 140.399 152.472 141.095 150.129 141.095C149.419 141.095 148.481 141.095 147.771 140.868C147.771 142.984 146.123 145.342 143.766 146.975C141.422 148.864 139.064 149.574 136.707 149.574C135.301 149.574 134.122 149.333 133.184 149.106C132.943 149.333 132.943 149.574 132.716 149.802C131.764 150.98 129.889 152.855 125.415 153.338C124.946 153.338 124.478 153.338 123.768 153.338C119.293 153.338 115.061 151.222 112.945 150.043C110.587 152.628 107.292 154.034 103.769 154.034C98.5851 154.034 93.8838 150.739 92.009 146.038C91.0573 146.506 89.8785 146.748 88.7138 146.748C87.2935 146.748 85.8873 146.506 84.467 145.81C80.2344 144.163 78.3596 141.578 77.6494 139.462C76.712 139.689 75.7604 139.689 75.0644 139.689C73.8856 139.689 72.7067 139.462 71.3006 138.979C66.8265 137.345 64.0001 134.05 63.0627 129.576C62.3525 129.818 61.6423 129.818 60.9464 129.818C55.0662 129.818 50.1235 125.102 50.1235 118.995C50.1235 117.584 50.3555 116.173 50.8194 114.762C49.1719 113.583 39.5278 106.766 10.5957 100.417C9.41686 100.175 4.23267 98.9964 4.23267 98.9964C4.47412 97.3488 4.70137 95.7012 4.94283 94.2951C6.81766 95.0053 9.88557 95.9427 11.2917 96.1841C39.7693 102.76 50.3507 109.351 52.9499 111.467C54.8248 109.578 57.6512 108.413 60.4777 108.413C63.7728 108.413 66.8265 109.819 68.9428 112.404C71.0591 110.757 73.4169 110.061 76.0019 110.061C77.6494 110.061 79.0556 110.288 80.7031 110.757C83.5296 111.708 85.6459 113.583 87.0662 116.168C88.4723 115.699 89.6512 115.458 91.0573 115.458C92.9464 115.458 94.594 115.941 96.4688 116.637C102.832 119.222 103.301 125.343 103.059 128.639C103.301 128.639 103.301 128.639 103.528 128.639C110.587 128.639 116.24 134.277 116.24 141.336C116.24 143.225 115.771 145.1 115.061 146.748C116.95 147.685 120.245 149.333 123.54 149.333C124.009 149.333 124.236 149.333 124.705 149.333C127.773 148.864 128.952 147.927 129.179 147.458C129.42 146.975 129.42 146.748 129.42 146.748L120.714 137.345C120.245 136.862 119.066 135.456 119.762 134.519C120.004 134.277 120.472 134.05 120.714 134.05C121.41 134.05 122.12 134.519 122.589 134.988C126.821 138.51 132.005 143.453 132.474 144.163C132.943 144.632 133.653 144.859 134.59 145.1C135.064 145.1 135.537 145.1 136.011 145.1C136.948 145.1 139.292 144.859 140.939 143.453C141.181 143.225 142.118 142.274 142.36 142.047C144.234 139.93 142.118 137.345 142.118 137.345L132.005 126.054C132.005 126.054 131.537 125.812 131.295 125.343C130.599 124.165 130.827 123.469 131.068 123.227C131.295 122.758 131.764 122.758 132.005 122.758C132.716 122.758 133.412 123.469 134.122 123.937C136.948 126.054 140.712 129.818 144.234 133.34L146.351 135.229C146.834 135.456 148.24 136.394 150.356 136.394C152.004 136.394 153.651 135.925 155.299 134.746C157.657 133.34 158.594 131.465 158.594 129.107C158.352 126.991 156.705 125.343 156.705 125.343L142.828 111.467C141.891 110.757 141.181 109.578 141.891 108.64C142.118 108.413 142.36 108.172 142.828 108.172C143.538 108.172 144.234 108.64 144.945 109.351C149.177 113.114 161.179 123.937 161.179 123.937C161.179 123.937 162.827 125.102 165.184 125.102C166.59 125.102 168.238 124.633 169.658 123.696C171.306 122.517 172.471 120.869 172.471 119.222C172.471 115.941 170.354 114.052 170.354 114.052C170.127 113.825 135.528 83.7137 127.773 77.8335C123.299 74.5383 120.941 73.6009 118.356 73.3595C118.115 73.3595 117.646 73.3595 117.419 73.3595C116.24 73.3595 115.061 73.6009 113.882 73.8282C110.118 75.007 105.175 78.5437 101.653 81.3559C97.4204 84.8925 93.1736 88.1877 89.1825 89.1251C88.0036 89.3524 86.5975 89.5938 85.1772 89.5938C81.4133 89.5938 77.408 88.415 75.0644 87.0088C73.8856 86.0714 72.9482 85.1198 72.4794 84.1824C71.5278 81.8246 73.1754 79.7083 73.8856 79.0124L83.3023 68.6582C83.9983 67.948 84.467 67.4793 85.1772 66.7833C83.0609 67.2521 80.9446 67.948 78.8283 68.4309C75.2917 69.3683 71.9965 70.3058 68.4741 70.3058C66.8265 70.3058 65.179 70.0643 63.7728 70.0643C58.5886 69.5956 41.8856 65.363 28.2362 59.7243C29.6423 58.7869 30.8212 57.8353 32.2415 56.8979C45.1807 62.0679 61.6423 66.0732 64.9375 66.0732C65.179 66.0732 67.2953 66.0732 68.4741 66.0732C71.3006 66.0732 74.3543 65.363 77.6494 64.4256C81.4133 63.4882 85.6459 62.0679 90.5886 62.0679C95.5314 57.8353 103.059 53.134 116.481 52.9067C116.708 52.9067 117.177 52.9067 117.419 52.9067C128.952 52.9067 139.775 58.0767 140.243 58.304C148.95 62.5508 157.884 64.6671 166.832 64.6671C175.766 64.6671 184.714 62.778 194.358 58.5454C195.537 59.4829 196.943 60.6617 198.122 61.5991C187.299 66.5419 176.945 69.1269 166.832 69.1269C157.188 69.1269 147.771 66.7833 138.354 62.3093C137.175 61.8406 127.304 57.3666 117.419 57.3666C117.182 57.3666 116.945 57.3666 116.708 57.3666C100.716 57.8353 93.8838 64.6671 86.5975 71.9533L77.1807 82.0661C76.712 82.5348 76.4706 83.0035 76.712 83.245C77.8909 84.6511 80.9446 85.5885 84.2398 85.5885C85.6459 85.5885 86.8248 85.3612 88.2451 85.1198C91.2988 84.4238 95.3041 81.3559 99.068 78.3022L99.2952 78.0608C103.528 74.7798 107.775 71.4846 112.007 70.0643C113.882 69.3683 115.771 69.1269 117.419 69.1269C119.293 69.1269 120.714 69.5956 121.651 69.8371C124.009 70.3058 126.594 71.9533 130.358 74.7798C137.175 79.7083 161.648 101.113 172.243 110.288C176.717 108.172 194.827 100.417 219.072 95.2325ZM112.703 140.626C112.703 135.925 108.712 131.934 103.997 131.934C102.832 131.934 101.653 132.403 100.716 132.63C100.233 132.871 99.764 132.871 99.5367 132.871H99.068C98.3578 132.403 98.5851 131.934 99.068 130.513C99.068 130.286 101.88 122.29 95.5314 119.463C94.1253 118.753 92.9464 118.526 91.7675 118.526C89.1825 118.526 87.5349 119.932 86.8248 120.642C86.8248 120.869 86.3561 121.111 86.1146 121.111C86.1146 121.111 85.4186 121.111 85.4186 120.173C85.4186 118.753 84.7085 114.989 80.7031 113.825C79.5385 113.583 78.5869 113.342 77.6494 113.342C72.4794 113.114 69.653 117.347 69.653 117.589L68.7014 119.222L68.4741 117.347C68.0054 114.052 64.9375 111.467 61.6423 111.467C57.8785 111.467 54.8248 114.521 54.8248 118.284C54.8248 122.048 57.8785 125.102 61.6423 125.102C63.2899 125.102 64.9375 124.406 66.3578 123.227L66.8265 122.758L67.2952 123.227C67.5367 123.469 67.5367 123.696 67.5367 124.165C67.068 126.054 66.5851 132.161 73.1754 134.746C73.8856 134.988 74.823 135.229 75.5332 135.229C76.944 135.229 78.3549 134.756 79.7657 133.809C80.2344 133.34 80.4759 133.34 80.7031 133.34H80.9446L81.1861 133.581C81.4133 133.809 81.4133 134.05 81.4133 134.519C81.1861 135.925 81.4133 139.22 86.3561 141.336C87.2935 141.81 88.2356 142.047 89.1825 142.047C91.0573 142.047 92.4777 141.095 93.4151 140.158C93.8838 139.93 94.1252 139.689 94.594 139.689C95.5314 139.689 95.5314 140.626 95.5314 141.095C95.7728 145.81 99.5367 149.574 104.238 149.574C108.939 149.574 112.945 145.81 112.703 140.626Z" fill="#2D3277"/>
</svg>
